<mxfile host="app.diagrams.net" modified="2024-05-08T14:49:48.395Z" agent="Mozilla/5.0 (Windows NT 10.0; Win64; x64) AppleWebKit/537.36 (KHTML, like Gecko) Chrome/124.0.0.0 Safari/537.36" etag="gUsXcQiZHpN2zkZMOo7c" version="24.3.1" type="device">
  <diagram name="Pagina-1" id="baiFNShmtGU5VAFcWGJx">
    <mxGraphModel dx="989" dy="532" grid="1" gridSize="10" guides="1" tooltips="1" connect="1" arrows="1" fold="1" page="1" pageScale="1" pageWidth="827" pageHeight="1169" math="0" shadow="0">
      <root>
        <mxCell id="0" />
        <mxCell id="1" parent="0" />
        <mxCell id="vV4i7yCAdNPorWnMqEQY-7" style="edgeStyle=orthogonalEdgeStyle;rounded=0;orthogonalLoop=1;jettySize=auto;html=1;exitX=1;exitY=0.5;exitDx=0;exitDy=0;exitPerimeter=0;entryX=0;entryY=0.5;entryDx=0;entryDy=0;" edge="1" parent="1" source="vV4i7yCAdNPorWnMqEQY-1" target="vV4i7yCAdNPorWnMqEQY-5">
          <mxGeometry relative="1" as="geometry" />
        </mxCell>
        <mxCell id="vV4i7yCAdNPorWnMqEQY-1" value="IEEE" style="strokeWidth=2;html=1;shape=mxgraph.flowchart.database;whiteSpace=wrap;" vertex="1" parent="1">
          <mxGeometry x="80" y="90" width="70" height="60" as="geometry" />
        </mxCell>
        <mxCell id="vV4i7yCAdNPorWnMqEQY-17" style="edgeStyle=orthogonalEdgeStyle;rounded=0;orthogonalLoop=1;jettySize=auto;html=1;exitX=1;exitY=0.5;exitDx=0;exitDy=0;exitPerimeter=0;entryX=0;entryY=0.5;entryDx=0;entryDy=0;" edge="1" parent="1" source="vV4i7yCAdNPorWnMqEQY-2" target="vV4i7yCAdNPorWnMqEQY-9">
          <mxGeometry relative="1" as="geometry" />
        </mxCell>
        <mxCell id="vV4i7yCAdNPorWnMqEQY-2" value="ACM" style="strokeWidth=2;html=1;shape=mxgraph.flowchart.database;whiteSpace=wrap;" vertex="1" parent="1">
          <mxGeometry x="80" y="170" width="70" height="60" as="geometry" />
        </mxCell>
        <mxCell id="vV4i7yCAdNPorWnMqEQY-18" style="edgeStyle=orthogonalEdgeStyle;rounded=0;orthogonalLoop=1;jettySize=auto;html=1;exitX=1;exitY=0.5;exitDx=0;exitDy=0;exitPerimeter=0;entryX=0;entryY=0.5;entryDx=0;entryDy=0;" edge="1" parent="1" source="vV4i7yCAdNPorWnMqEQY-3" target="vV4i7yCAdNPorWnMqEQY-12">
          <mxGeometry relative="1" as="geometry" />
        </mxCell>
        <mxCell id="vV4i7yCAdNPorWnMqEQY-3" value="SCIENCE" style="strokeWidth=2;html=1;shape=mxgraph.flowchart.database;whiteSpace=wrap;" vertex="1" parent="1">
          <mxGeometry x="80" y="250" width="70" height="60" as="geometry" />
        </mxCell>
        <mxCell id="vV4i7yCAdNPorWnMqEQY-19" style="edgeStyle=orthogonalEdgeStyle;rounded=0;orthogonalLoop=1;jettySize=auto;html=1;exitX=1;exitY=0.5;exitDx=0;exitDy=0;exitPerimeter=0;entryX=0;entryY=0.5;entryDx=0;entryDy=0;" edge="1" parent="1" source="vV4i7yCAdNPorWnMqEQY-4" target="vV4i7yCAdNPorWnMqEQY-11">
          <mxGeometry relative="1" as="geometry" />
        </mxCell>
        <mxCell id="vV4i7yCAdNPorWnMqEQY-4" value="SCOPUS" style="strokeWidth=2;html=1;shape=mxgraph.flowchart.database;whiteSpace=wrap;" vertex="1" parent="1">
          <mxGeometry x="80" y="330" width="70" height="60" as="geometry" />
        </mxCell>
        <mxCell id="vV4i7yCAdNPorWnMqEQY-8" style="edgeStyle=orthogonalEdgeStyle;rounded=0;orthogonalLoop=1;jettySize=auto;html=1;exitX=1;exitY=0.5;exitDx=0;exitDy=0;entryX=0;entryY=0.5;entryDx=0;entryDy=0;" edge="1" parent="1" source="vV4i7yCAdNPorWnMqEQY-5" target="vV4i7yCAdNPorWnMqEQY-6">
          <mxGeometry relative="1" as="geometry">
            <Array as="points">
              <mxPoint x="330" y="120" />
              <mxPoint x="330" y="120" />
            </Array>
          </mxGeometry>
        </mxCell>
        <mxCell id="vV4i7yCAdNPorWnMqEQY-5" value="numero paper" style="swimlane;startSize=13;" vertex="1" parent="1">
          <mxGeometry x="200" y="97.5" width="90" height="45" as="geometry">
            <mxRectangle x="210" y="97.5" width="120" height="30" as="alternateBounds" />
          </mxGeometry>
        </mxCell>
        <mxCell id="vV4i7yCAdNPorWnMqEQY-41" value="41" style="text;html=1;align=center;verticalAlign=middle;resizable=0;points=[];autosize=1;strokeColor=none;fillColor=none;" vertex="1" parent="vV4i7yCAdNPorWnMqEQY-5">
          <mxGeometry x="25" y="15" width="40" height="30" as="geometry" />
        </mxCell>
        <mxCell id="vV4i7yCAdNPorWnMqEQY-6" value="numero paper" style="swimlane;startSize=13;" vertex="1" parent="1">
          <mxGeometry x="360" y="97.5" width="90" height="45" as="geometry" />
        </mxCell>
        <mxCell id="vV4i7yCAdNPorWnMqEQY-45" value="10" style="text;html=1;align=center;verticalAlign=middle;resizable=0;points=[];autosize=1;strokeColor=none;fillColor=none;" vertex="1" parent="vV4i7yCAdNPorWnMqEQY-6">
          <mxGeometry x="25" y="15" width="40" height="30" as="geometry" />
        </mxCell>
        <mxCell id="vV4i7yCAdNPorWnMqEQY-9" value="numero paper" style="swimlane;startSize=13;" vertex="1" parent="1">
          <mxGeometry x="200" y="177.5" width="90" height="45" as="geometry">
            <mxRectangle x="210" y="97.5" width="120" height="30" as="alternateBounds" />
          </mxGeometry>
        </mxCell>
        <mxCell id="vV4i7yCAdNPorWnMqEQY-42" value="112" style="text;html=1;align=center;verticalAlign=middle;resizable=0;points=[];autosize=1;strokeColor=none;fillColor=none;" vertex="1" parent="vV4i7yCAdNPorWnMqEQY-9">
          <mxGeometry x="25" y="15" width="40" height="30" as="geometry" />
        </mxCell>
        <mxCell id="vV4i7yCAdNPorWnMqEQY-10" value="numero paper" style="swimlane;startSize=13;" vertex="1" parent="1">
          <mxGeometry x="360" y="177.5" width="90" height="45" as="geometry">
            <mxRectangle x="210" y="97.5" width="120" height="30" as="alternateBounds" />
          </mxGeometry>
        </mxCell>
        <mxCell id="vV4i7yCAdNPorWnMqEQY-46" value="25" style="text;html=1;align=center;verticalAlign=middle;resizable=0;points=[];autosize=1;strokeColor=none;fillColor=none;" vertex="1" parent="vV4i7yCAdNPorWnMqEQY-10">
          <mxGeometry x="25" y="15" width="40" height="30" as="geometry" />
        </mxCell>
        <mxCell id="vV4i7yCAdNPorWnMqEQY-11" value="numero paper" style="swimlane;startSize=13;" vertex="1" parent="1">
          <mxGeometry x="200" y="337.5" width="90" height="45" as="geometry">
            <mxRectangle x="210" y="97.5" width="120" height="30" as="alternateBounds" />
          </mxGeometry>
        </mxCell>
        <mxCell id="vV4i7yCAdNPorWnMqEQY-44" value="309" style="text;html=1;align=center;verticalAlign=middle;resizable=0;points=[];autosize=1;strokeColor=none;fillColor=none;" vertex="1" parent="vV4i7yCAdNPorWnMqEQY-11">
          <mxGeometry x="25" y="15" width="40" height="30" as="geometry" />
        </mxCell>
        <mxCell id="vV4i7yCAdNPorWnMqEQY-12" value="numero paper" style="swimlane;startSize=13;" vertex="1" parent="1">
          <mxGeometry x="200" y="257.5" width="90" height="45" as="geometry">
            <mxRectangle x="210" y="97.5" width="120" height="30" as="alternateBounds" />
          </mxGeometry>
        </mxCell>
        <mxCell id="vV4i7yCAdNPorWnMqEQY-43" value="28" style="text;html=1;align=center;verticalAlign=middle;resizable=0;points=[];autosize=1;strokeColor=none;fillColor=none;" vertex="1" parent="vV4i7yCAdNPorWnMqEQY-12">
          <mxGeometry x="25" y="15" width="40" height="30" as="geometry" />
        </mxCell>
        <mxCell id="vV4i7yCAdNPorWnMqEQY-13" value="numero paper" style="swimlane;startSize=13;" vertex="1" parent="1">
          <mxGeometry x="360" y="337.5" width="90" height="45" as="geometry">
            <mxRectangle x="210" y="97.5" width="120" height="30" as="alternateBounds" />
          </mxGeometry>
        </mxCell>
        <mxCell id="vV4i7yCAdNPorWnMqEQY-48" value="31" style="text;html=1;align=center;verticalAlign=middle;resizable=0;points=[];autosize=1;strokeColor=none;fillColor=none;" vertex="1" parent="vV4i7yCAdNPorWnMqEQY-13">
          <mxGeometry x="25" y="15" width="40" height="30" as="geometry" />
        </mxCell>
        <mxCell id="vV4i7yCAdNPorWnMqEQY-14" value="numero paper" style="swimlane;startSize=13;" vertex="1" parent="1">
          <mxGeometry x="360" y="257.5" width="90" height="45" as="geometry">
            <mxRectangle x="210" y="97.5" width="120" height="30" as="alternateBounds" />
          </mxGeometry>
        </mxCell>
        <mxCell id="vV4i7yCAdNPorWnMqEQY-47" value="2" style="text;html=1;align=center;verticalAlign=middle;resizable=0;points=[];autosize=1;strokeColor=none;fillColor=none;" vertex="1" parent="vV4i7yCAdNPorWnMqEQY-14">
          <mxGeometry x="30" y="15" width="30" height="30" as="geometry" />
        </mxCell>
        <mxCell id="vV4i7yCAdNPorWnMqEQY-20" value="FASE 1" style="swimlane;" vertex="1" parent="1">
          <mxGeometry x="100" y="30" width="145" height="50" as="geometry" />
        </mxCell>
        <mxCell id="vV4i7yCAdNPorWnMqEQY-21" value="&lt;font style=&quot;font-size: 11px;&quot;&gt;Applicazione Search String&lt;/font&gt;" style="text;html=1;align=center;verticalAlign=middle;resizable=0;points=[];autosize=1;strokeColor=none;fillColor=none;" vertex="1" parent="vV4i7yCAdNPorWnMqEQY-20">
          <mxGeometry x="-7.5" y="20" width="160" height="30" as="geometry" />
        </mxCell>
        <mxCell id="vV4i7yCAdNPorWnMqEQY-24" value="FASE 2" style="swimlane;" vertex="1" parent="1">
          <mxGeometry x="332.5" y="30" width="145" height="50" as="geometry" />
        </mxCell>
        <mxCell id="vV4i7yCAdNPorWnMqEQY-25" value="&lt;span style=&quot;font-size: 11px;&quot;&gt;Applicazione Criteri E/I&lt;/span&gt;" style="text;html=1;align=center;verticalAlign=middle;resizable=0;points=[];autosize=1;strokeColor=none;fillColor=none;" vertex="1" parent="vV4i7yCAdNPorWnMqEQY-24">
          <mxGeometry x="7.5" y="20" width="130" height="30" as="geometry" />
        </mxCell>
        <mxCell id="vV4i7yCAdNPorWnMqEQY-29" value="" style="verticalLabelPosition=bottom;verticalAlign=top;html=1;shape=mxgraph.basic.rect;fillColor2=none;strokeWidth=1;size=20;indent=5;" vertex="1" parent="1">
          <mxGeometry x="520" y="180" width="120" height="130" as="geometry" />
        </mxCell>
        <mxCell id="vV4i7yCAdNPorWnMqEQY-30" value="Numero totale di Paper inclusi" style="text;html=1;align=center;verticalAlign=middle;whiteSpace=wrap;rounded=0;" vertex="1" parent="1">
          <mxGeometry x="525" y="250" width="110" height="30" as="geometry" />
        </mxCell>
        <mxCell id="vV4i7yCAdNPorWnMqEQY-32" value="" style="shape=note;size=14;whiteSpace=wrap;html=1;" vertex="1" parent="1">
          <mxGeometry x="560" y="192.5" width="40" height="47.5" as="geometry" />
        </mxCell>
        <mxCell id="vV4i7yCAdNPorWnMqEQY-34" value="" style="line;strokeWidth=1;rotatable=0;dashed=0;labelPosition=right;align=left;verticalAlign=middle;spacingTop=0;spacingLeft=6;points=[];portConstraint=eastwest;" vertex="1" parent="1">
          <mxGeometry x="450" y="195" width="30" height="10" as="geometry" />
        </mxCell>
        <mxCell id="vV4i7yCAdNPorWnMqEQY-35" value="" style="line;strokeWidth=1;rotatable=0;dashed=0;labelPosition=right;align=left;verticalAlign=middle;spacingTop=0;spacingLeft=6;points=[];portConstraint=eastwest;" vertex="1" parent="1">
          <mxGeometry x="450" y="275" width="30" height="10" as="geometry" />
        </mxCell>
        <mxCell id="vV4i7yCAdNPorWnMqEQY-36" value="" style="line;strokeWidth=1;rotatable=0;dashed=0;labelPosition=right;align=left;verticalAlign=middle;spacingTop=0;spacingLeft=6;points=[];portConstraint=eastwest;" vertex="1" parent="1">
          <mxGeometry x="450" y="355" width="30" height="10" as="geometry" />
        </mxCell>
        <mxCell id="vV4i7yCAdNPorWnMqEQY-38" value="" style="endArrow=none;html=1;rounded=0;" edge="1" parent="1">
          <mxGeometry width="50" height="50" relative="1" as="geometry">
            <mxPoint x="480" y="360" as="sourcePoint" />
            <mxPoint x="480" y="120" as="targetPoint" />
          </mxGeometry>
        </mxCell>
        <mxCell id="vV4i7yCAdNPorWnMqEQY-39" value="" style="endArrow=none;html=1;rounded=0;entryX=1;entryY=0.5;entryDx=0;entryDy=0;" edge="1" parent="1" target="vV4i7yCAdNPorWnMqEQY-6">
          <mxGeometry width="50" height="50" relative="1" as="geometry">
            <mxPoint x="480" y="120" as="sourcePoint" />
            <mxPoint x="450" y="112" as="targetPoint" />
          </mxGeometry>
        </mxCell>
        <mxCell id="vV4i7yCAdNPorWnMqEQY-40" value="" style="endArrow=classic;html=1;rounded=0;entryX=-0.011;entryY=0.454;entryDx=0;entryDy=0;entryPerimeter=0;" edge="1" parent="1" target="vV4i7yCAdNPorWnMqEQY-29">
          <mxGeometry width="50" height="50" relative="1" as="geometry">
            <mxPoint x="480" y="240" as="sourcePoint" />
            <mxPoint x="360" y="180" as="targetPoint" />
          </mxGeometry>
        </mxCell>
        <mxCell id="vV4i7yCAdNPorWnMqEQY-49" value="68" style="text;html=1;align=center;verticalAlign=middle;whiteSpace=wrap;rounded=0;fillColor=#f8cecc;strokeColor=#b85450;" vertex="1" parent="1">
          <mxGeometry x="555" y="282.5" width="50" height="20" as="geometry" />
        </mxCell>
      </root>
    </mxGraphModel>
  </diagram>
</mxfile>
